<svg width="42" height="42" viewBox="0 0 42 42" fill="none" xmlns="http://www.w3.org/2000/svg">
<path d="M20.979 3.5C11.3225 3.5 3.48427 11.34 3.48427 20.9965C3.48427 30.6513 11.3225 38.4913 20.979 38.4913C30.6355 38.4913 38.4755 30.6513 38.4755 20.9965C38.4755 11.34 30.6355 3.5 20.979 3.5ZM23.6443 14.3675C23.6443 14.3675 26.2728 17.0013 29.3405 20.0708C29.5978 20.328 29.7255 20.664 29.7255 21C29.7255 21.336 29.5978 21.6702 29.3405 21.9275C26.2728 24.997 23.646 27.629 23.646 27.629C23.3923 27.8828 23.0598 28.0088 22.7255 28.0088C22.3895 28.007 22.0535 27.8793 21.7963 27.622C21.2853 27.1093 21.2818 26.2815 21.791 25.7723L25.2508 22.3125H13.538C12.8135 22.3125 12.2255 21.7245 12.2255 21C12.2255 20.2755 12.8135 19.6875 13.538 19.6875H25.2508L21.7893 16.2243C21.2818 15.7185 21.287 14.8908 21.7998 14.3798C22.057 14.1225 22.393 13.993 22.7273 13.9913C23.0598 13.9913 23.3923 14.1155 23.6443 14.3675Z" fill="#5680E9"/>
</svg>
