<svg width="32" height="32" viewBox="0 0 32 32" fill="none" xmlns="http://www.w3.org/2000/svg">
<rect width="32" height="32" rx="16" fill="#5680E9"/>
<path d="M12.6676 16C12.6676 14.1591 14.1595 12.6664 16.0004 12.6664C17.8413 12.6664 19.334 14.1591 19.334 16C19.334 17.8409 17.8413 19.3336 16.0004 19.3336C14.1595 19.3336 12.6676 17.8409 12.6676 16ZM10.8655 16C10.8655 18.836 13.1644 21.1349 16.0004 21.1349C18.8364 21.1349 21.1353 18.836 21.1353 16C21.1353 13.164 18.8364 10.8651 16.0004 10.8651C13.1644 10.8651 10.8655 13.164 10.8655 16ZM20.1386 10.6615C20.1385 10.8989 20.2087 11.1309 20.3405 11.3283C20.4723 11.5257 20.6597 11.6796 20.8789 11.7705C21.0981 11.8614 21.3394 11.8852 21.5722 11.839C21.805 11.7928 22.0189 11.6786 22.1867 11.5109C22.3546 11.3431 22.469 11.1293 22.5154 10.8966C22.5618 10.6638 22.5381 10.4225 22.4474 10.2032C22.3567 9.98392 22.2029 9.79644 22.0056 9.6645C21.8084 9.53257 21.5764 9.4621 21.339 9.462H21.3386C21.0204 9.46215 20.7154 9.58856 20.4904 9.81347C20.2654 10.0384 20.1388 10.3434 20.1386 10.6615ZM11.9604 24.1398C10.9854 24.0954 10.4555 23.933 10.1034 23.7958C9.63648 23.614 9.30336 23.3975 8.95312 23.0478C8.60288 22.698 8.38608 22.3652 8.20512 21.8983C8.06784 21.5463 7.90544 21.0162 7.86112 20.0413C7.81264 18.9872 7.80296 18.6706 7.80296 16.0001C7.80296 13.3296 7.81344 13.0138 7.86112 11.9589C7.90552 10.9839 8.06912 10.4549 8.20512 10.1018C8.38688 9.63496 8.60336 9.30184 8.95312 8.9516C9.30288 8.60136 9.63568 8.38456 10.1034 8.2036C10.4554 8.06632 10.9854 7.90392 11.9604 7.8596C13.0145 7.81112 13.3311 7.80144 16.0004 7.80144C18.6697 7.80144 18.9866 7.81192 20.0416 7.8596C21.0166 7.904 21.5456 8.0676 21.8986 8.2036C22.3655 8.38456 22.6986 8.60184 23.0489 8.9516C23.3991 9.30136 23.6151 9.63496 23.7969 10.1018C23.9342 10.4538 24.0966 10.9839 24.1409 11.9589C24.1894 13.0138 24.199 13.3296 24.199 16.0001C24.199 18.6706 24.1894 18.9863 24.1409 20.0413C24.0965 21.0162 23.9333 21.5462 23.7969 21.8983C23.6151 22.3652 23.3986 22.6983 23.0489 23.0478C22.6991 23.3972 22.3655 23.614 21.8986 23.7958C21.5466 23.933 21.0166 24.0954 20.0416 24.1398C18.9875 24.1882 18.6709 24.1979 16.0004 24.1979C13.3299 24.1979 13.0142 24.1882 11.9604 24.1398ZM11.8776 6.06056C10.813 6.10904 10.0856 6.27784 9.45032 6.52504C8.7924 6.78032 8.23544 7.1228 7.67888 7.67848C7.12232 8.23416 6.78072 8.792 6.52544 9.44992C6.27824 10.0856 6.10944 10.8126 6.06096 11.8772C6.01168 12.9434 6.0004 13.2843 6.0004 16C6.0004 18.7157 6.01168 19.0566 6.06096 20.1228C6.10944 21.1874 6.27824 21.9144 6.52544 22.5501C6.78072 23.2076 7.1224 23.7661 7.67888 24.3215C8.23536 24.877 8.7924 25.219 9.45032 25.475C10.0868 25.7222 10.813 25.891 11.8776 25.9394C12.9444 25.9879 13.2847 26 16.0004 26C18.7161 26 19.057 25.9887 20.1232 25.9394C21.1878 25.891 21.9148 25.7222 22.5505 25.475C23.208 25.219 23.7654 24.8772 24.3219 24.3215C24.8785 23.7658 25.2194 23.2076 25.4754 22.5501C25.7226 21.9144 25.8922 21.1874 25.9398 20.1228C25.9883 19.0558 25.9996 18.7157 25.9996 16C25.9996 13.2843 25.9883 12.9434 25.9398 11.8772C25.8914 10.8126 25.7226 10.0852 25.4754 9.44992C25.2194 8.7924 24.8776 8.23504 24.3219 7.67848C23.7662 7.12192 23.208 6.78032 22.5513 6.52504C21.9148 6.27784 21.1878 6.10824 20.124 6.06056C19.0578 6.01208 18.7169 6 16.0012 6C13.2855 6 12.9444 6.01128 11.8776 6.06056Z" fill="white"/>
</svg>
