<svg width="42" height="42" viewBox="0 0 42 42" fill="none" xmlns="http://www.w3.org/2000/svg">
<path d="M21.021 3.5C30.6775 3.5 38.5158 11.34 38.5158 20.9965C38.5158 30.6513 30.6775 38.4913 21.021 38.4913C11.3645 38.4913 3.52451 30.6513 3.52451 20.9965C3.52451 11.34 11.3645 3.5 21.021 3.5ZM18.3558 14.3675C18.3558 14.3675 15.7273 17.0013 12.6595 20.0708C12.4023 20.328 12.2745 20.664 12.2745 21C12.2745 21.336 12.4023 21.6702 12.6595 21.9275C15.7273 24.997 18.354 27.629 18.354 27.629C18.6078 27.8828 18.9403 28.0088 19.2745 28.0088C19.6105 28.007 19.9465 27.8793 20.2038 27.622C20.7148 27.1093 20.7183 26.2815 20.209 25.7723L16.7493 22.3125H28.462C29.1865 22.3125 29.7745 21.7245 29.7745 21C29.7745 20.2755 29.1865 19.6875 28.462 19.6875H16.7493L20.2108 16.2243C20.7183 15.7185 20.713 14.8908 20.2003 14.3798C19.943 14.1225 19.607 13.993 19.2728 13.9913C18.9403 13.9913 18.6078 14.1155 18.3558 14.3675Z" fill="#C6CDD2"/>
</svg>
