<svg width="32" height="32" viewBox="0 0 32 32" fill="none" xmlns="http://www.w3.org/2000/svg">
<path fill-rule="evenodd" clip-rule="evenodd" d="M5.33333 4C4.59695 4 4 4.59695 4 5.33333V18.4659L1.39231 26.9409C1.26787 27.3453 1.34278 27.7848 1.59416 28.1252C1.84554 28.4655 2.24355 28.6664 2.66668 28.6664H11.9719C11.9813 28.6666 11.9906 28.6667 12 28.6667H20C20.0094 28.6667 20.0187 28.6666 20.0281 28.6664H29.3333C29.7565 28.6664 30.1545 28.4655 30.4059 28.1252C30.6572 27.7848 30.7322 27.3453 30.6077 26.9409L28 18.4658V5.33333C28 4.59695 27.403 4 26.6667 4H5.33333ZM20.9763 25.9997H27.5281L25.682 20H6.31802L4.47196 25.9997H11.0237L11.9956 22.9308C12.171 22.3766 12.6854 22 13.2667 22H18.7333C19.3147 22 19.829 22.3766 20.0045 22.9308L20.9763 25.9997Z" fill="#5680E9"/>
</svg>
