<svg width="32" height="32" viewBox="0 0 32 32" fill="none" xmlns="http://www.w3.org/2000/svg">
<path fill-rule="evenodd" clip-rule="evenodd" d="M6.72434 2.51601C6.9769 2.19048 7.36577 2 7.77779 2H24.2222C24.6349 2 25.0243 2.19111 25.2768 2.51756L28.655 6.88489C28.6631 6.89535 28.671 6.90589 28.6787 6.91651C29.0864 7.38486 29.3333 7.99692 29.3333 8.66667V26.6667C29.3333 28.5076 27.841 30 26 30H5.99999C4.15906 30 2.66666 28.5077 2.66666 26.6667V8.66667C2.66666 8.0274 2.89159 7.44068 3.26663 6.98133C3.28806 6.94797 3.31115 6.91527 3.33592 6.88334L6.72434 2.51601ZM23.5679 4.66667L24.5992 6H7.39642L8.43089 4.66667H23.5679ZM15.9945 11.3333C16.7308 11.3333 17.3278 11.9303 17.3278 12.6667V20.1199L20.3905 17.0572C20.9112 16.5365 21.7554 16.5365 22.2761 17.0572C22.7968 17.5779 22.7968 18.4221 22.2761 18.9428L16.9428 24.2761C16.6817 24.5372 16.3393 24.6674 15.9972 24.6667L15.9945 24.6667C15.5894 24.6667 15.2265 24.4861 14.982 24.201L9.72385 18.9428C9.20315 18.4221 9.20315 17.5779 9.72385 17.0572C10.2445 16.5365 11.0888 16.5365 11.6095 17.0572L14.6611 20.1088V12.6667C14.6611 11.9303 15.2581 11.3333 15.9945 11.3333Z" fill="#5680E9"/>
</svg>
