<svg width="32" height="32" viewBox="0 0 32 32" fill="none" xmlns="http://www.w3.org/2000/svg">
<rect width="32" height="32" rx="16" fill="#5680E9"/>
<path d="M24.8834 23.55C23.8334 23.525 22.8084 23.525 21.7584 23.55C21.5334 23.55 21.4834 23.5 21.4834 23.275C21.4834 21.425 21.4834 19.55 21.4834 17.7C21.4834 17.275 21.4584 16.85 21.3334 16.45C20.9584 15.15 19.4584 14.675 18.3834 15.55C17.8084 16 17.5834 16.625 17.5834 17.375C17.5834 19.125 17.5834 20.875 17.5834 22.625C17.5834 22.85 17.5584 23.075 17.5834 23.325C17.6084 23.525 17.5084 23.575 17.3334 23.55C16.2584 23.55 15.2084 23.55 14.1334 23.55C13.9334 23.55 13.8834 23.5 13.8834 23.3C13.9084 21.725 13.9084 20.15 13.9084 18.55C13.9084 16.6 13.9084 14.65 13.8834 12.725C13.8834 12.5 13.9334 12.45 14.1334 12.45C15.2084 12.45 16.2584 12.45 17.3334 12.45C17.5334 12.45 17.5834 12.5 17.5834 12.7C17.5834 13.1 17.5834 13.5 17.5834 13.975C17.6584 13.9 17.6834 13.875 17.7084 13.85C18.6834 12.425 20.0584 12.025 21.6834 12.275C23.5584 12.575 24.7584 13.875 25.0584 15.875C25.1334 16.35 25.1584 16.825 25.1584 17.3C25.1584 19.3 25.1584 21.275 25.1584 23.275C25.1584 23.475 25.1084 23.55 24.8834 23.55Z" fill="white"/>
<path d="M11.8833 18C11.8833 19.75 11.8833 21.5 11.8833 23.25C11.8833 23.475 11.8333 23.55 11.6083 23.55C10.5583 23.525 9.50834 23.55 8.45834 23.55C8.25834 23.55 8.20834 23.5 8.20834 23.3C8.20834 19.775 8.20834 16.225 8.20834 12.7C8.20834 12.525 8.25834 12.45 8.45834 12.45C9.53334 12.45 10.6083 12.45 11.6833 12.45C11.9083 12.45 11.9333 12.525 11.9333 12.725C11.8833 14.475 11.8833 16.225 11.8833 18Z" fill="white"/>
<path d="M12.0583 9.55001C11.8083 10.55 10.7833 11.125 9.60835 10.925C8.35835 10.725 7.65835 9.50001 8.10835 8.30001C8.40835 7.55001 9.13335 7.10001 10.0583 7.12501C11.4583 7.10001 12.3833 8.22501 12.0583 9.55001Z" fill="white"/>
</svg>
