<svg width="154" height="44" viewBox="0 0 154 44" fill="none" xmlns="http://www.w3.org/2000/svg">
<path d="M11.0029 0.799998V5.648C8.93891 5.984 7.01891 6.992 5.72291 8.288C4.04291 9.968 2.98691 12.56 2.98691 15.392C2.98691 17.552 3.65891 19.136 5.14691 20.672C6.58691 22.112 8.31491 22.928 9.99491 23.6L11.6749 24.272C13.4029 24.944 14.2189 25.184 14.9869 25.712C15.8989 26.336 16.4269 27.152 16.4269 28.304C16.4269 29.456 15.8989 30.224 15.2749 30.752C14.3149 31.568 13.1149 31.76 12.0589 31.76C10.2349 31.76 8.84291 31.232 7.59491 30.464C6.01091 29.504 4.85891 28.352 4.47491 27.968L0.922906 33.248C2.17091 34.592 3.61091 35.648 5.24291 36.512C7.25891 37.568 9.08291 38 11.0029 38.096V43.376H15.3229V37.904C17.7229 37.52 19.7389 36.416 21.1309 34.928C22.6669 33.296 23.7709 30.8 23.7709 27.776C23.7709 25.472 23.0989 23.504 21.5149 21.872C20.2669 20.624 18.6349 19.856 17.0029 19.136L14.3149 17.984C13.0189 17.408 11.8669 17.072 11.0989 16.4C10.5229 15.92 10.1869 15.344 10.1869 14.528C10.1869 13.712 10.6189 12.992 11.1469 12.512C11.7709 11.936 12.8269 11.6 14.1709 11.6C16.1869 11.6 17.9629 12.56 19.4029 13.856L22.6189 8.72C19.6429 6.224 16.7149 5.744 15.3229 5.648V0.799998H11.0029ZM50.8242 5.984H35.0802L31.8162 23.312C33.4002 22.448 35.6562 21.632 38.3442 21.632C41.7042 21.632 43.2882 22.976 43.6722 23.312C44.4402 23.984 45.3042 25.136 45.3042 27.056C45.3042 28.928 44.4402 30.32 43.4322 31.088C42.2802 32 40.5522 32.384 38.8722 32.384C36.9522 32.384 35.3682 31.856 34.0242 30.992C33.0162 30.368 31.8162 29.312 30.9522 28.352L29.2722 35.216C33.3042 38.336 36.9042 38.72 39.9282 38.72C43.1922 38.72 46.6962 38.24 49.6242 35.36C51.1122 33.872 52.8882 31.232 52.8882 27.104C52.8882 23.312 51.4002 20.816 49.9602 19.376C48.1842 17.552 45.4002 16.256 41.8002 16.256C40.9842 16.256 39.9762 16.352 39.1602 16.496L40.0242 12.224H50.8242V5.984ZM83.4934 22.016C83.4934 16.496 82.0054 11.6 78.8854 8.576C77.0134 6.752 74.2294 5.264 70.2934 5.264C66.4534 5.264 63.7174 6.704 61.7974 8.576C58.6774 11.6 57.1894 16.496 57.1894 22.016C57.1894 27.488 58.6774 32.336 61.7974 35.408C63.7174 37.28 66.4534 38.72 70.2934 38.72C74.2294 38.72 77.0134 37.232 78.8854 35.408C82.0054 32.336 83.4934 27.488 83.4934 22.016ZM70.3414 11.6C71.5894 11.6 72.4534 11.984 73.3174 12.8C75.6694 15.104 76.0054 19.712 76.0054 21.968C76.0054 24.464 75.5734 28.976 73.3174 31.184C72.4534 32 71.5894 32.384 70.3414 32.384C69.0934 32.384 68.2294 32 67.3654 31.184C65.1094 28.976 64.6774 24.464 64.6774 21.968C64.6774 19.712 65.0134 15.104 67.3654 12.8C68.2294 11.984 69.0934 11.6 70.3414 11.6ZM84.7227 42.08L86.1147 42.752L98.4507 20.504L97.0587 19.784L84.7227 42.08ZM100.558 38H102.286V32.576C102.286 31.376 102.502 29.336 104.47 29.336C106.294 29.336 106.27 31.4 106.27 32.096V38H107.998V32.456C107.998 31.256 108.214 29.336 110.206 29.336C111.838 29.336 111.982 30.824 111.982 31.952V38H113.71V31.688C113.71 30.272 113.422 27.8 110.47 27.8C109.798 27.8 108.43 27.896 107.47 29.408C107.278 29.072 106.558 27.8 104.758 27.8C103.702 27.8 102.838 28.28 102.286 29.096V28.04H100.558V38ZM121.643 38.288C124.667 38.288 126.923 36.08 126.923 33.056C126.923 30.032 124.691 27.8 121.643 27.8C118.595 27.8 116.363 30.032 116.363 33.056C116.363 36.08 118.619 38.288 121.643 38.288ZM121.643 29.336C123.467 29.336 125.147 30.608 125.147 33.056C125.147 35.48 123.443 36.752 121.643 36.752C119.867 36.752 118.139 35.504 118.139 33.056C118.139 30.632 119.819 29.336 121.643 29.336ZM129.573 38H131.301V32.792C131.301 32.072 131.349 30.896 132.021 30.104C132.525 29.504 133.173 29.336 133.773 29.336C134.541 29.336 135.069 29.624 135.405 30.056C135.813 30.584 135.861 31.28 135.861 31.88V38H137.589V31.832C137.589 30.728 137.517 29.912 137.013 29.168C136.413 28.28 135.333 27.8 134.157 27.8C132.501 27.8 131.613 28.784 131.301 29.192V28.04H129.573V38ZM144.351 29.624V28.04H142.623V24.44H140.895V28.04H139.839V29.624H140.895V38H142.623V29.624H144.351ZM145.98 38H147.708V32.792C147.708 32.072 147.756 30.896 148.428 30.104C148.932 29.504 149.58 29.336 150.18 29.336C150.948 29.336 151.476 29.624 151.812 30.056C152.22 30.584 152.268 31.28 152.268 31.88V38H153.996V31.832C153.996 30.728 153.924 29.912 153.42 29.168C152.82 28.28 151.74 27.8 150.564 27.8C148.908 27.8 148.02 28.784 147.708 29.192V20.504H145.98V38Z" fill="white"/>
</svg>
