<svg width="220" height="220" viewBox="0 0 220 220" fill="none" xmlns="http://www.w3.org/2000/svg">
<path d="M159.334 67.5002H69.2602C66.9522 67.5002 65.0442 69.3633 65.0442 71.7001V133.04H49.9782C48.2682 133.04 46.8762 131.653 46.8762 129.949V52.0329C46.8762 50.3303 48.2682 48.9449 49.9782 48.9449H156.23C157.94 48.9449 159.334 50.3323 159.334 52.0348V67.5022V67.5002Z" fill="url(#paint0_linear_0_294)"/>
<path d="M121.383 121.474C121.073 121.397 120.749 121.4 120.441 121.485C120.134 121.569 119.854 121.731 119.628 121.954C119.402 122.178 119.239 122.456 119.154 122.761C119.069 123.065 119.065 123.387 119.143 123.694L129.809 165.539C129.889 165.853 130.051 166.14 130.279 166.371C130.507 166.603 130.793 166.77 131.108 166.856C131.423 166.942 131.755 166.944 132.071 166.861C132.386 166.778 132.674 166.614 132.905 166.385L142.337 157.038C142.683 156.695 143.152 156.503 143.642 156.503C144.131 156.503 144.601 156.695 144.947 157.038L159.323 171.283C160.043 171.996 161.211 171.996 161.933 171.283L169.401 163.88C169.747 163.537 169.941 163.072 169.941 162.587C169.941 162.102 169.747 161.637 169.401 161.294L155.027 147.049C154.681 146.706 154.486 146.241 154.486 145.756C154.486 145.271 154.681 144.806 155.027 144.463L164.461 135.114C164.691 134.885 164.856 134.6 164.94 134.287C165.023 133.975 165.021 133.646 164.934 133.334C164.847 133.023 164.679 132.74 164.446 132.514C164.212 132.288 163.923 132.127 163.607 132.048L121.385 121.474H121.383Z" fill="url(#paint1_linear_0_294)"/>
<path fill-rule="evenodd" clip-rule="evenodd" d="M168.908 67.5004H69.26C66.952 67.5004 65.044 69.3634 65.044 71.7002V144.427C65.044 146.726 66.912 148.627 69.26 148.627H125.498L119.14 123.695C119.062 123.389 119.065 123.067 119.15 122.762C119.235 122.457 119.398 122.179 119.624 121.955C119.85 121.731 120.13 121.569 120.438 121.485C120.746 121.4 121.07 121.397 121.38 121.474L163.604 132.048C163.92 132.127 164.21 132.288 164.443 132.514C164.676 132.74 164.844 133.023 164.931 133.334C165.018 133.646 165.02 133.975 164.937 134.287C164.854 134.6 164.688 134.885 164.458 135.114L155.024 144.463C154.678 144.806 154.484 145.271 154.484 145.756C154.484 146.241 154.678 146.706 155.024 147.049L156.618 148.629H168.906C171.214 148.629 173.122 146.766 173.122 144.429V71.7002C173.122 69.3614 171.214 67.5004 168.906 67.5004H168.908ZM83.728 90.9928H135.682C137.272 90.9928 138.797 90.3668 139.922 89.2524C141.046 88.1381 141.678 86.6267 141.678 85.0508C141.678 83.4749 141.046 81.9635 139.922 80.8492C138.797 79.7349 137.272 79.1088 135.682 79.1088H83.728C82.1378 79.1088 80.6127 79.7349 79.4882 80.8492C78.3637 81.9635 77.732 83.4749 77.732 85.0508C77.732 86.6267 78.3637 88.1381 79.4882 89.2524C80.6127 90.3668 82.1378 90.9928 83.728 90.9928ZM156.408 90.9928H156.548C158.138 90.9928 159.663 90.3668 160.788 89.2524C161.912 88.1381 162.544 86.6267 162.544 85.0508C162.544 83.4749 161.912 81.9635 160.788 80.8492C159.663 79.7349 158.138 79.1088 156.548 79.1088H156.408C154.818 79.1088 153.293 79.7349 152.168 80.8492C151.044 81.9635 150.412 83.4749 150.412 85.0508C150.412 86.6267 151.044 88.1381 152.168 89.2524C153.293 90.3668 154.818 90.9928 156.408 90.9928Z" fill="url(#paint2_linear_0_294)"/>
<defs>
<linearGradient id="paint0_linear_0_294" x1="43.6342" y1="56.7916" x2="162.332" y2="125.61" gradientUnits="userSpaceOnUse">
<stop stop-color="white" stop-opacity="0.5"/>
<stop offset="1" stop-color="white"/>
</linearGradient>
<linearGradient id="paint1_linear_0_294" x1="140.003" y1="168.958" x2="150.398" y2="121.377" gradientUnits="userSpaceOnUse">
<stop stop-color="white"/>
<stop offset="1" stop-color="white" stop-opacity="0.6"/>
</linearGradient>
<linearGradient id="paint2_linear_0_294" x1="65.044" y1="138.525" x2="172.524" y2="66.6044" gradientUnits="userSpaceOnUse">
<stop stop-color="white"/>
<stop offset="1" stop-color="white" stop-opacity="0.5"/>
</linearGradient>
</defs>
</svg>
