<svg width="1110" height="284" viewBox="0 0 1110 284" fill="none" xmlns="http://www.w3.org/2000/svg">
<rect width="1110" height="284" rx="24" fill="#5680E9"/>
<mask id="mask0_0_288" style="mask-type:alpha" maskUnits="userSpaceOnUse" x="0" y="0" width="1110" height="284">
<rect width="1110" height="284" rx="24" fill="#5680E9"/>
</mask>
<g mask="url(#mask0_0_288)">
<circle cx="1003.5" cy="10.5" r="47.5" fill="url(#paint0_linear_0_288)"/>
</g>
<path d="M207.334 99.5002H117.26C114.952 99.5002 113.044 101.363 113.044 103.7V165.04H97.9782C96.2682 165.04 94.8762 163.653 94.8762 161.949V84.0329C94.8762 82.3303 96.2682 80.9449 97.9782 80.9449H204.23C205.94 80.9449 207.334 82.3323 207.334 84.0348V99.5022V99.5002Z" fill="url(#paint1_linear_0_288)"/>
<path d="M169.383 153.474C169.073 153.397 168.749 153.4 168.441 153.485C168.134 153.569 167.854 153.731 167.628 153.954C167.402 154.178 167.239 154.456 167.154 154.761C167.069 155.065 167.065 155.387 167.143 155.694L177.809 197.539C177.889 197.853 178.051 198.14 178.279 198.371C178.507 198.603 178.793 198.77 179.108 198.856C179.423 198.942 179.755 198.944 180.071 198.861C180.386 198.778 180.674 198.614 180.905 198.385L190.337 189.038C190.683 188.695 191.152 188.503 191.642 188.503C192.131 188.503 192.601 188.695 192.947 189.038L207.323 203.283C208.043 203.996 209.211 203.996 209.933 203.283L217.401 195.88C217.747 195.537 217.941 195.072 217.941 194.587C217.941 194.102 217.747 193.637 217.401 193.294L203.027 179.049C202.681 178.706 202.486 178.241 202.486 177.756C202.486 177.271 202.681 176.806 203.027 176.463L212.461 167.114C212.691 166.885 212.856 166.6 212.94 166.287C213.023 165.975 213.021 165.646 212.934 165.334C212.847 165.023 212.679 164.74 212.446 164.514C212.212 164.288 211.923 164.127 211.607 164.048L169.385 153.474H169.383Z" fill="url(#paint2_linear_0_288)"/>
<path fill-rule="evenodd" clip-rule="evenodd" d="M216.908 99.5004H117.26C114.952 99.5004 113.044 101.363 113.044 103.7V176.427C113.044 178.726 114.912 180.627 117.26 180.627H173.498L167.14 155.695C167.062 155.389 167.065 155.067 167.15 154.762C167.235 154.457 167.398 154.179 167.624 153.955C167.85 153.731 168.13 153.569 168.438 153.485C168.746 153.4 169.07 153.397 169.38 153.474L211.604 164.048C211.92 164.127 212.21 164.288 212.443 164.514C212.676 164.74 212.844 165.023 212.931 165.334C213.018 165.646 213.02 165.975 212.937 166.287C212.854 166.6 212.688 166.885 212.458 167.114L203.024 176.463C202.678 176.806 202.484 177.271 202.484 177.756C202.484 178.241 202.678 178.706 203.024 179.049L204.618 180.629H216.906C219.214 180.629 221.122 178.766 221.122 176.429V103.7C221.122 101.361 219.214 99.5004 216.906 99.5004H216.908ZM131.728 122.993H183.682C185.272 122.993 186.797 122.367 187.922 121.252C189.046 120.138 189.678 118.627 189.678 117.051C189.678 115.475 189.046 113.964 187.922 112.849C186.797 111.735 185.272 111.109 183.682 111.109H131.728C130.138 111.109 128.613 111.735 127.488 112.849C126.364 113.964 125.732 115.475 125.732 117.051C125.732 118.627 126.364 120.138 127.488 121.252C128.613 122.367 130.138 122.993 131.728 122.993ZM204.408 122.993H204.548C206.138 122.993 207.663 122.367 208.788 121.252C209.912 120.138 210.544 118.627 210.544 117.051C210.544 115.475 209.912 113.964 208.788 112.849C207.663 111.735 206.138 111.109 204.548 111.109H204.408C202.818 111.109 201.293 111.735 200.168 112.849C199.044 113.964 198.412 115.475 198.412 117.051C198.412 118.627 199.044 120.138 200.168 121.252C201.293 122.367 202.818 122.993 204.408 122.993Z" fill="url(#paint3_linear_0_288)"/>
<mask id="mask1_0_288" style="mask-type:alpha" maskUnits="userSpaceOnUse" x="0" y="0" width="1110" height="284">
<rect width="1110" height="284" rx="24" fill="#5680E9"/>
</mask>
<g mask="url(#mask1_0_288)">
<ellipse cx="37.2581" cy="20.1749" rx="101.5" ry="64.5" transform="rotate(-32.7716 37.2581 20.1749)" fill="url(#paint4_linear_0_288)"/>
<g filter="url(#filter0_f_0_288)">
<ellipse cx="532.821" cy="126.215" rx="307.667" ry="155.414" transform="rotate(-19.9832 532.821 126.215)" fill="url(#paint5_linear_0_288)" fill-opacity="0.8"/>
</g>
</g>
<circle cx="90.5281" cy="157.528" r="16" transform="rotate(129.629 90.5281 157.528)" fill="url(#paint6_linear_0_288)"/>
<circle cx="758.312" cy="45.3125" r="16" transform="rotate(35.4301 758.312 45.3125)" fill="url(#paint7_linear_0_288)"/>
<rect x="827" y="112" width="193" height="60" rx="30" fill="white"/>
<path d="M866.464 137.214H870.91V143.514C870.214 143.742 869.512 143.91 868.804 144.018C868.096 144.126 867.292 144.18 866.392 144.18C865.06 144.18 863.938 143.916 863.026 143.388C862.114 142.848 861.418 142.086 860.938 141.102C860.47 140.106 860.236 138.93 860.236 137.574C860.236 136.23 860.5 135.066 861.028 134.082C861.556 133.098 862.312 132.336 863.296 131.796C864.292 131.244 865.492 130.968 866.896 130.968C867.616 130.968 868.294 131.034 868.93 131.166C869.578 131.298 870.178 131.484 870.73 131.724L870.118 133.128C869.662 132.924 869.146 132.75 868.57 132.606C868.006 132.462 867.418 132.39 866.806 132.39C865.786 132.39 864.91 132.6 864.178 133.02C863.446 133.44 862.888 134.04 862.504 134.82C862.12 135.588 861.928 136.506 861.928 137.574C861.928 138.594 862.09 139.5 862.414 140.292C862.75 141.072 863.272 141.684 863.98 142.128C864.688 142.56 865.618 142.776 866.77 142.776C867.154 142.776 867.49 142.764 867.778 142.74C868.078 142.704 868.348 142.662 868.588 142.614C868.84 142.566 869.074 142.518 869.29 142.47V138.654H866.464V137.214ZM881.161 144H873.979V131.148H881.161V132.57H875.599V136.584H880.837V137.988H875.599V142.578H881.161V144ZM888.049 144H886.429V132.57H882.415V131.148H892.045V132.57H888.049V144ZM906.67 140.562C906.67 141.33 906.484 141.984 906.112 142.524C905.74 143.052 905.206 143.46 904.51 143.748C903.826 144.036 903.016 144.18 902.08 144.18C901.6 144.18 901.138 144.156 900.694 144.108C900.262 144.06 899.866 143.994 899.506 143.91C899.146 143.814 898.828 143.7 898.552 143.568V142.02C898.984 142.212 899.518 142.386 900.154 142.542C900.802 142.698 901.468 142.776 902.152 142.776C902.788 142.776 903.322 142.692 903.754 142.524C904.186 142.356 904.51 142.116 904.726 141.804C904.942 141.492 905.05 141.126 905.05 140.706C905.05 140.286 904.96 139.932 904.78 139.644C904.6 139.356 904.288 139.092 903.844 138.852C903.412 138.6 902.806 138.336 902.026 138.06C901.474 137.856 900.988 137.64 900.568 137.412C900.16 137.172 899.818 136.902 899.542 136.602C899.266 136.302 899.056 135.96 898.912 135.576C898.78 135.192 898.714 134.748 898.714 134.244C898.714 133.56 898.888 132.978 899.236 132.498C899.584 132.006 900.064 131.628 900.676 131.364C901.3 131.1 902.014 130.968 902.818 130.968C903.526 130.968 904.174 131.034 904.762 131.166C905.35 131.298 905.884 131.472 906.364 131.688L905.86 133.074C905.416 132.882 904.93 132.72 904.402 132.588C903.886 132.456 903.346 132.39 902.782 132.39C902.242 132.39 901.792 132.468 901.432 132.624C901.072 132.78 900.802 133.002 900.622 133.29C900.442 133.566 900.352 133.89 900.352 134.262C900.352 134.694 900.442 135.054 900.622 135.342C900.802 135.63 901.096 135.888 901.504 136.116C901.912 136.344 902.464 136.59 903.16 136.854C903.916 137.13 904.552 137.43 905.068 137.754C905.596 138.066 905.992 138.444 906.256 138.888C906.532 139.332 906.67 139.89 906.67 140.562ZM916.441 144H909.259V131.148H916.441V132.57H910.879V136.584H916.117V137.988H910.879V142.578H916.441V144ZM930.475 137.556C930.475 138.552 930.349 139.458 930.097 140.274C929.845 141.078 929.467 141.774 928.963 142.362C928.471 142.95 927.853 143.4 927.109 143.712C926.377 144.024 925.525 144.18 924.553 144.18C923.545 144.18 922.669 144.024 921.925 143.712C921.181 143.388 920.563 142.938 920.071 142.362C919.579 141.774 919.213 141.072 918.973 140.256C918.733 139.44 918.613 138.534 918.613 137.538C918.613 136.218 918.829 135.066 919.261 134.082C919.693 133.098 920.347 132.33 921.223 131.778C922.111 131.226 923.227 130.95 924.571 130.95C925.855 130.95 926.935 131.226 927.811 131.778C928.687 132.318 929.347 133.086 929.791 134.082C930.247 135.066 930.475 136.224 930.475 137.556ZM920.323 137.556C920.323 138.636 920.473 139.566 920.773 140.346C921.073 141.126 921.535 141.726 922.159 142.146C922.795 142.566 923.593 142.776 924.553 142.776C925.525 142.776 926.317 142.566 926.929 142.146C927.553 141.726 928.015 141.126 928.315 140.346C928.615 139.566 928.765 138.636 928.765 137.556C928.765 135.936 928.429 134.67 927.757 133.758C927.085 132.834 926.023 132.372 924.571 132.372C923.599 132.372 922.795 132.582 922.159 133.002C921.535 133.41 921.073 134.004 920.773 134.784C920.473 135.552 920.323 136.476 920.323 137.556ZM949.016 137.448C949.016 138.888 948.746 140.094 948.206 141.066C947.678 142.038 946.916 142.77 945.92 143.262C944.924 143.754 943.718 144 942.302 144H938.72V131.148H942.68C943.976 131.148 945.098 131.388 946.046 131.868C946.994 132.348 947.726 133.056 948.242 133.992C948.758 134.916 949.016 136.068 949.016 137.448ZM947.306 137.502C947.306 136.362 947.114 135.426 946.73 134.694C946.358 133.962 945.806 133.422 945.074 133.074C944.354 132.714 943.478 132.534 942.446 132.534H940.34V142.614H942.086C943.826 142.614 945.128 142.188 945.992 141.336C946.868 140.472 947.306 139.194 947.306 137.502ZM963.082 137.556C963.082 138.552 962.956 139.458 962.704 140.274C962.452 141.078 962.074 141.774 961.57 142.362C961.078 142.95 960.46 143.4 959.716 143.712C958.984 144.024 958.132 144.18 957.16 144.18C956.152 144.18 955.276 144.024 954.532 143.712C953.788 143.388 953.17 142.938 952.678 142.362C952.186 141.774 951.82 141.072 951.58 140.256C951.34 139.44 951.22 138.534 951.22 137.538C951.22 136.218 951.436 135.066 951.868 134.082C952.3 133.098 952.954 132.33 953.83 131.778C954.718 131.226 955.834 130.95 957.178 130.95C958.462 130.95 959.542 131.226 960.418 131.778C961.294 132.318 961.954 133.086 962.398 134.082C962.854 135.066 963.082 136.224 963.082 137.556ZM952.93 137.556C952.93 138.636 953.08 139.566 953.38 140.346C953.68 141.126 954.142 141.726 954.766 142.146C955.402 142.566 956.2 142.776 957.16 142.776C958.132 142.776 958.924 142.566 959.536 142.146C960.16 141.726 960.622 141.126 960.922 140.346C961.222 139.566 961.372 138.636 961.372 137.556C961.372 135.936 961.036 134.67 960.364 133.758C959.692 132.834 958.63 132.372 957.178 132.372C956.206 132.372 955.402 132.582 954.766 133.002C954.142 133.41 953.68 134.004 953.38 134.784C953.08 135.552 952.93 136.476 952.93 137.556ZM976.119 144H974.229L967.353 133.326H967.281C967.293 133.542 967.305 133.782 967.317 134.046C967.341 134.31 967.359 134.598 967.371 134.91C967.383 135.21 967.395 135.522 967.407 135.846C967.419 136.17 967.425 136.494 967.425 136.818V144H965.931V131.148H967.803L974.661 141.786H974.733C974.721 141.642 974.709 141.444 974.697 141.192C974.685 140.928 974.673 140.64 974.661 140.328C974.649 140.004 974.637 139.674 974.625 139.338C974.613 139.002 974.607 138.69 974.607 138.402V131.148H976.119V144ZM986.788 144H979.606V131.148H986.788V132.57H981.226V136.584H986.464V137.988H981.226V142.578H986.788V144Z" fill="#5680E9"/>
<path d="M304.064 114.888C304.064 116.253 303.733 117.416 303.072 118.376C302.411 119.315 301.461 120.04 300.224 120.552C299.008 121.064 297.568 121.32 295.904 121.32C295.051 121.32 294.229 121.277 293.44 121.192C292.672 121.107 291.968 120.989 291.328 120.84C290.688 120.669 290.123 120.467 289.632 120.232V117.48C290.4 117.821 291.349 118.131 292.48 118.408C293.632 118.685 294.816 118.824 296.032 118.824C297.163 118.824 298.112 118.675 298.88 118.376C299.648 118.077 300.224 117.651 300.608 117.096C300.992 116.541 301.184 115.891 301.184 115.144C301.184 114.397 301.024 113.768 300.704 113.256C300.384 112.744 299.829 112.275 299.04 111.848C298.272 111.4 297.195 110.931 295.808 110.44C294.827 110.077 293.963 109.693 293.216 109.288C292.491 108.861 291.883 108.381 291.392 107.848C290.901 107.315 290.528 106.707 290.272 106.024C290.037 105.341 289.92 104.552 289.92 103.656C289.92 102.44 290.229 101.405 290.848 100.552C291.467 99.6773 292.32 99.0053 293.408 98.536C294.517 98.0667 295.787 97.832 297.216 97.832C298.475 97.832 299.627 97.9493 300.672 98.184C301.717 98.4187 302.667 98.728 303.52 99.112L302.624 101.576C301.835 101.235 300.971 100.947 300.032 100.712C299.115 100.477 298.155 100.36 297.152 100.36C296.192 100.36 295.392 100.499 294.752 100.776C294.112 101.053 293.632 101.448 293.312 101.96C292.992 102.451 292.832 103.027 292.832 103.688C292.832 104.456 292.992 105.096 293.312 105.608C293.632 106.12 294.155 106.579 294.88 106.984C295.605 107.389 296.587 107.827 297.824 108.296C299.168 108.787 300.299 109.32 301.216 109.896C302.155 110.451 302.859 111.123 303.328 111.912C303.819 112.701 304.064 113.693 304.064 114.888ZM314.01 119.016C314.437 119.016 314.875 118.984 315.323 118.92C315.771 118.835 316.133 118.749 316.411 118.664V120.808C316.112 120.957 315.685 121.075 315.131 121.16C314.576 121.267 314.043 121.32 313.531 121.32C312.635 121.32 311.803 121.171 311.035 120.872C310.288 120.552 309.68 120.008 309.211 119.24C308.741 118.472 308.507 117.395 308.507 116.008V106.024H306.075V104.68L308.539 103.56L309.659 99.912H311.323V103.848H316.283V106.024H311.323V115.944C311.323 116.989 311.568 117.768 312.059 118.28C312.571 118.771 313.221 119.016 314.01 119.016ZM326.341 103.56C328.432 103.56 329.978 104.019 330.981 104.936C331.984 105.853 332.485 107.315 332.485 109.32V121H330.437L329.893 118.568H329.765C329.274 119.187 328.762 119.709 328.229 120.136C327.717 120.541 327.12 120.84 326.437 121.032C325.776 121.224 324.965 121.32 324.005 121.32C322.981 121.32 322.053 121.139 321.221 120.776C320.41 120.413 319.77 119.859 319.301 119.112C318.832 118.344 318.597 117.384 318.597 116.232C318.597 114.525 319.269 113.213 320.613 112.296C321.957 111.357 324.026 110.845 326.821 110.76L329.733 110.664V109.64C329.733 108.211 329.424 107.219 328.805 106.664C328.186 106.109 327.312 105.832 326.181 105.832C325.285 105.832 324.432 105.971 323.621 106.248C322.81 106.504 322.053 106.803 321.349 107.144L320.485 105.032C321.232 104.627 322.117 104.285 323.141 104.008C324.165 103.709 325.232 103.56 326.341 103.56ZM327.173 112.712C325.04 112.797 323.557 113.139 322.725 113.736C321.914 114.333 321.509 115.176 321.509 116.264C321.509 117.224 321.797 117.928 322.373 118.376C322.97 118.824 323.728 119.048 324.645 119.048C326.096 119.048 327.301 118.653 328.261 117.864C329.221 117.053 329.701 115.816 329.701 114.152V112.616L327.173 112.712ZM345.783 103.528C346.103 103.528 346.444 103.549 346.807 103.592C347.191 103.613 347.521 103.656 347.799 103.72L347.447 106.312C347.169 106.248 346.86 106.195 346.519 106.152C346.199 106.109 345.889 106.088 345.591 106.088C344.929 106.088 344.3 106.227 343.703 106.504C343.105 106.781 342.572 107.176 342.103 107.688C341.633 108.179 341.26 108.776 340.983 109.48C340.727 110.184 340.599 110.973 340.599 111.848V121H337.783V103.848H340.087L340.407 106.984H340.535C340.897 106.344 341.335 105.768 341.847 105.256C342.359 104.723 342.945 104.307 343.607 104.008C344.268 103.688 344.993 103.528 345.783 103.528ZM356.729 119.016C357.156 119.016 357.593 118.984 358.041 118.92C358.489 118.835 358.852 118.749 359.129 118.664V120.808C358.831 120.957 358.404 121.075 357.849 121.16C357.295 121.267 356.761 121.32 356.249 121.32C355.353 121.32 354.521 121.171 353.753 120.872C353.007 120.552 352.399 120.008 351.929 119.24C351.46 118.472 351.225 117.395 351.225 116.008V106.024H348.793V104.68L351.257 103.56L352.377 99.912H354.041V103.848H359.001V106.024H354.041V115.944C354.041 116.989 354.287 117.768 354.777 118.28C355.289 118.771 355.94 119.016 356.729 119.016ZM387.069 112.392C387.069 113.821 386.878 115.091 386.494 116.2C386.131 117.288 385.598 118.216 384.894 118.984C384.211 119.752 383.368 120.339 382.366 120.744C381.384 121.128 380.286 121.32 379.07 121.32C377.939 121.32 376.894 121.128 375.934 120.744C374.974 120.339 374.142 119.752 373.438 118.984C372.734 118.216 372.179 117.288 371.774 116.2C371.39 115.091 371.198 113.821 371.198 112.392C371.198 110.493 371.518 108.893 372.158 107.592C372.798 106.269 373.715 105.267 374.91 104.584C376.104 103.88 377.523 103.528 379.166 103.528C380.723 103.528 382.088 103.88 383.262 104.584C384.456 105.267 385.384 106.269 386.046 107.592C386.728 108.893 387.069 110.493 387.069 112.392ZM374.11 112.392C374.11 113.736 374.28 114.909 374.622 115.912C374.984 116.893 375.539 117.651 376.286 118.184C377.032 118.717 377.982 118.984 379.134 118.984C380.286 118.984 381.235 118.717 381.982 118.184C382.728 117.651 383.272 116.893 383.614 115.912C383.976 114.909 384.158 113.736 384.158 112.392C384.158 111.027 383.976 109.864 383.614 108.904C383.251 107.944 382.696 107.208 381.95 106.696C381.224 106.163 380.275 105.896 379.102 105.896C377.352 105.896 376.083 106.472 375.294 107.624C374.504 108.776 374.11 110.365 374.11 112.392ZM399.693 103.528C401.805 103.528 403.501 104.264 404.781 105.736C406.082 107.208 406.733 109.427 406.733 112.392C406.733 114.333 406.434 115.976 405.837 117.32C405.26 118.643 404.439 119.645 403.373 120.328C402.327 120.989 401.09 121.32 399.661 121.32C398.786 121.32 398.007 121.203 397.325 120.968C396.642 120.733 396.055 120.435 395.565 120.072C395.095 119.688 394.69 119.272 394.349 118.824H394.157C394.199 119.187 394.242 119.645 394.285 120.2C394.327 120.755 394.349 121.235 394.349 121.64V128.68H391.533V103.848H393.837L394.221 106.184H394.349C394.69 105.693 395.095 105.245 395.565 104.84C396.055 104.435 396.631 104.115 397.293 103.88C397.975 103.645 398.775 103.528 399.693 103.528ZM399.181 105.896C398.029 105.896 397.101 106.12 396.397 106.568C395.693 106.995 395.181 107.645 394.861 108.52C394.541 109.395 394.37 110.504 394.349 111.848V112.392C394.349 113.8 394.498 114.995 394.797 115.976C395.095 116.957 395.597 117.704 396.301 118.216C397.026 118.728 398.007 118.984 399.245 118.984C400.29 118.984 401.143 118.696 401.805 118.12C402.487 117.544 402.989 116.765 403.309 115.784C403.65 114.781 403.821 113.64 403.821 112.36C403.821 110.397 403.437 108.829 402.669 107.656C401.922 106.483 400.759 105.896 399.181 105.896ZM416.948 119.016C417.375 119.016 417.812 118.984 418.26 118.92C418.708 118.835 419.071 118.749 419.348 118.664V120.808C419.049 120.957 418.623 121.075 418.068 121.16C417.513 121.267 416.98 121.32 416.468 121.32C415.572 121.32 414.74 121.171 413.972 120.872C413.225 120.552 412.617 120.008 412.148 119.24C411.679 118.472 411.444 117.395 411.444 116.008V106.024H409.012V104.68L411.476 103.56L412.596 99.912H414.26V103.848H419.22V106.024H414.26V115.944C414.26 116.989 414.505 117.768 414.996 118.28C415.508 118.771 416.159 119.016 416.948 119.016ZM425.599 103.848V121H422.783V103.848H425.599ZM424.223 97.416C424.649 97.416 425.023 97.5653 425.343 97.864C425.684 98.1413 425.855 98.5893 425.855 99.208C425.855 99.8053 425.684 100.253 425.343 100.552C425.023 100.851 424.649 101 424.223 101C423.753 101 423.359 100.851 423.039 100.552C422.719 100.253 422.559 99.8053 422.559 99.208C422.559 98.5893 422.719 98.1413 423.039 97.864C423.359 97.5653 423.753 97.416 424.223 97.416ZM449.849 103.528C451.79 103.528 453.241 104.029 454.201 105.032C455.161 106.013 455.641 107.613 455.641 109.832V121H452.857V109.96C452.857 108.616 452.569 107.603 451.993 106.92C451.438 106.237 450.563 105.896 449.369 105.896C447.705 105.896 446.51 106.376 445.785 107.336C445.081 108.296 444.729 109.693 444.729 111.528V121H441.945V109.96C441.945 109.064 441.817 108.317 441.561 107.72C441.305 107.101 440.921 106.643 440.409 106.344C439.897 106.045 439.235 105.896 438.425 105.896C437.273 105.896 436.366 106.141 435.705 106.632C435.043 107.101 434.563 107.795 434.265 108.712C433.987 109.629 433.849 110.76 433.849 112.104V121H431.033V103.848H433.305L433.721 106.184H433.881C434.243 105.587 434.681 105.096 435.193 104.712C435.726 104.307 436.313 104.008 436.953 103.816C437.593 103.624 438.254 103.528 438.937 103.528C440.259 103.528 441.358 103.763 442.233 104.232C443.129 104.701 443.779 105.427 444.185 106.408H444.345C444.921 105.427 445.699 104.701 446.681 104.232C447.683 103.763 448.739 103.528 449.849 103.528ZM463.755 103.848V121H460.939V103.848H463.755ZM462.379 97.416C462.805 97.416 463.179 97.5653 463.499 97.864C463.84 98.1413 464.011 98.5893 464.011 99.208C464.011 99.8053 463.84 100.253 463.499 100.552C463.179 100.851 462.805 101 462.379 101C461.909 101 461.515 100.851 461.195 100.552C460.875 100.253 460.715 99.8053 460.715 99.208C460.715 98.5893 460.875 98.1413 461.195 97.864C461.515 97.5653 461.909 97.416 462.379 97.416ZM480.261 121H467.717V119.144L476.933 106.024H468.261V103.848H480.037V105.96L470.949 118.824H480.261V121ZM487.036 103.848V121H484.22V103.848H487.036ZM485.66 97.416C486.087 97.416 486.46 97.5653 486.78 97.864C487.121 98.1413 487.292 98.5893 487.292 99.208C487.292 99.8053 487.121 100.253 486.78 100.552C486.46 100.851 486.087 101 485.66 101C485.191 101 484.796 100.851 484.476 100.552C484.156 100.253 483.996 99.8053 483.996 99.208C483.996 98.5893 484.156 98.1413 484.476 97.864C484.796 97.5653 485.191 97.416 485.66 97.416ZM500.726 103.528C502.774 103.528 504.321 104.029 505.366 105.032C506.411 106.013 506.934 107.613 506.934 109.832V121H504.15V110.024C504.15 108.637 503.841 107.603 503.222 106.92C502.603 106.237 501.633 105.896 500.31 105.896C498.411 105.896 497.099 106.429 496.374 107.496C495.649 108.563 495.286 110.099 495.286 112.104V121H492.47V103.848H494.742L495.158 106.184H495.318C495.702 105.587 496.171 105.096 496.726 104.712C497.302 104.307 497.931 104.008 498.614 103.816C499.297 103.624 500.001 103.528 500.726 103.528ZM518.331 103.528C519.462 103.528 520.475 103.741 521.371 104.168C522.289 104.595 523.067 105.245 523.707 106.12H523.867L524.251 103.848H526.491V121.288C526.491 122.909 526.214 124.264 525.659 125.352C525.105 126.461 524.262 127.293 523.131 127.848C522.001 128.403 520.561 128.68 518.811 128.68C517.574 128.68 516.433 128.584 515.387 128.392C514.363 128.221 513.446 127.955 512.635 127.592V125C513.19 125.277 513.798 125.512 514.459 125.704C515.121 125.917 515.835 126.077 516.603 126.184C517.371 126.291 518.161 126.344 518.971 126.344C520.443 126.344 521.595 125.907 522.427 125.032C523.281 124.179 523.707 123.005 523.707 121.512V120.84C523.707 120.584 523.718 120.221 523.739 119.752C523.761 119.261 523.782 118.92 523.803 118.728H523.675C523.078 119.603 522.331 120.253 521.435 120.68C520.561 121.107 519.537 121.32 518.363 121.32C516.145 121.32 514.406 120.541 513.147 118.984C511.91 117.427 511.291 115.251 511.291 112.456C511.291 110.621 511.569 109.043 512.123 107.72C512.699 106.376 513.51 105.341 514.555 104.616C515.601 103.891 516.859 103.528 518.331 103.528ZM518.715 105.896C517.755 105.896 516.934 106.152 516.251 106.664C515.59 107.176 515.078 107.923 514.715 108.904C514.374 109.885 514.203 111.08 514.203 112.488C514.203 114.6 514.587 116.221 515.355 117.352C516.145 118.461 517.286 119.016 518.779 119.016C519.654 119.016 520.401 118.909 521.019 118.696C521.638 118.461 522.15 118.109 522.555 117.64C522.961 117.149 523.259 116.531 523.451 115.784C523.643 115.037 523.739 114.152 523.739 113.128V112.456C523.739 110.899 523.558 109.64 523.195 108.68C522.854 107.72 522.31 107.016 521.563 106.568C520.817 106.12 519.867 105.896 518.715 105.896ZM538.845 103.848H541.853L545.565 113.608C545.778 114.184 545.97 114.739 546.141 115.272C546.333 115.805 546.503 116.328 546.653 116.84C546.802 117.331 546.919 117.811 547.005 118.28H547.133C547.261 117.747 547.463 117.053 547.741 116.2C548.018 115.325 548.306 114.451 548.605 113.576L552.093 103.848H555.133L547.741 123.368C547.335 124.435 546.855 125.363 546.301 126.152C545.767 126.963 545.106 127.581 544.317 128.008C543.549 128.456 542.61 128.68 541.501 128.68C540.989 128.68 540.541 128.648 540.157 128.584C539.773 128.541 539.442 128.488 539.165 128.424V126.184C539.399 126.227 539.677 126.269 539.997 126.312C540.338 126.355 540.69 126.376 541.053 126.376C541.714 126.376 542.279 126.248 542.749 125.992C543.239 125.757 543.655 125.405 543.997 124.936C544.338 124.488 544.626 123.955 544.861 123.336L545.757 121.064L538.845 103.848ZM572.757 112.392C572.757 113.821 572.565 115.091 572.181 116.2C571.818 117.288 571.285 118.216 570.581 118.984C569.898 119.752 569.056 120.339 568.053 120.744C567.072 121.128 565.973 121.32 564.757 121.32C563.626 121.32 562.581 121.128 561.621 120.744C560.661 120.339 559.829 119.752 559.125 118.984C558.421 118.216 557.866 117.288 557.461 116.2C557.077 115.091 556.885 113.821 556.885 112.392C556.885 110.493 557.205 108.893 557.845 107.592C558.485 106.269 559.402 105.267 560.597 104.584C561.792 103.88 563.21 103.528 564.853 103.528C566.41 103.528 567.776 103.88 568.949 104.584C570.144 105.267 571.072 106.269 571.733 107.592C572.416 108.893 572.757 110.493 572.757 112.392ZM559.797 112.392C559.797 113.736 559.968 114.909 560.309 115.912C560.672 116.893 561.226 117.651 561.973 118.184C562.72 118.717 563.669 118.984 564.821 118.984C565.973 118.984 566.922 118.717 567.669 118.184C568.416 117.651 568.96 116.893 569.301 115.912C569.664 114.909 569.845 113.736 569.845 112.392C569.845 111.027 569.664 109.864 569.301 108.904C568.938 107.944 568.384 107.208 567.637 106.696C566.912 106.163 565.962 105.896 564.789 105.896C563.04 105.896 561.77 106.472 560.981 107.624C560.192 108.776 559.797 110.365 559.797 112.392ZM591.556 103.848V121H589.252L588.836 118.728H588.708C588.345 119.325 587.876 119.816 587.3 120.2C586.724 120.584 586.095 120.861 585.412 121.032C584.729 121.224 584.015 121.32 583.268 121.32C581.903 121.32 580.751 121.107 579.812 120.68C578.895 120.232 578.201 119.549 577.732 118.632C577.263 117.715 577.028 116.531 577.028 115.08V103.848H579.876V114.888C579.876 116.253 580.185 117.277 580.804 117.96C581.423 118.643 582.383 118.984 583.684 118.984C584.964 118.984 585.967 118.749 586.692 118.28C587.439 117.789 587.961 117.085 588.26 116.168C588.58 115.229 588.74 114.099 588.74 112.776V103.848H591.556ZM605.001 103.528C605.321 103.528 605.663 103.549 606.025 103.592C606.409 103.613 606.74 103.656 607.017 103.72L606.665 106.312C606.388 106.248 606.079 106.195 605.737 106.152C605.417 106.109 605.108 106.088 604.809 106.088C604.148 106.088 603.519 106.227 602.921 106.504C602.324 106.781 601.791 107.176 601.321 107.688C600.852 108.179 600.479 108.776 600.201 109.48C599.945 110.184 599.817 110.973 599.817 111.848V121H597.001V103.848H599.305L599.625 106.984H599.753C600.116 106.344 600.553 105.768 601.065 105.256C601.577 104.723 602.164 104.307 602.825 104.008C603.487 103.688 604.212 103.528 605.001 103.528ZM630.886 111.304C630.758 110.856 630.63 110.419 630.502 109.992C630.374 109.544 630.256 109.128 630.15 108.744C630.064 108.339 629.979 107.965 629.894 107.624C629.808 107.283 629.744 106.995 629.702 106.76H629.574C629.531 106.995 629.467 107.283 629.382 107.624C629.318 107.965 629.232 108.339 629.126 108.744C629.04 109.149 628.934 109.576 628.806 110.024C628.699 110.451 628.571 110.888 628.422 111.336L625.35 120.968H622.15L617.446 103.816H620.358L622.726 112.968C622.896 113.587 623.056 114.216 623.206 114.856C623.355 115.475 623.483 116.072 623.59 116.648C623.718 117.203 623.803 117.683 623.846 118.088H623.974C624.038 117.832 624.112 117.512 624.198 117.128C624.283 116.744 624.368 116.339 624.454 115.912C624.56 115.485 624.667 115.059 624.774 114.632C624.902 114.205 625.019 113.821 625.126 113.48L628.166 103.816H631.238L634.182 113.48C634.331 113.971 634.48 114.493 634.63 115.048C634.8 115.603 634.95 116.147 635.078 116.68C635.206 117.192 635.291 117.651 635.334 118.056H635.462C635.504 117.693 635.579 117.245 635.686 116.712C635.814 116.157 635.952 115.56 636.102 114.92C636.272 114.259 636.443 113.608 636.614 112.968L639.014 103.816H641.894L637.126 120.968H633.83L630.886 111.304ZM651.594 103.528C653.066 103.528 654.325 103.848 655.37 104.488C656.437 105.128 657.247 106.035 657.802 107.208C658.378 108.36 658.666 109.715 658.666 111.272V112.968H646.922C646.965 114.909 647.455 116.392 648.394 117.416C649.354 118.419 650.687 118.92 652.394 118.92C653.482 118.92 654.442 118.824 655.274 118.632C656.127 118.419 657.002 118.12 657.898 117.736V120.2C657.023 120.584 656.159 120.861 655.306 121.032C654.453 121.224 653.439 121.32 652.266 121.32C650.645 121.32 649.205 120.989 647.946 120.328C646.709 119.667 645.738 118.685 645.034 117.384C644.351 116.061 644.01 114.451 644.01 112.552C644.01 110.675 644.319 109.064 644.938 107.72C645.578 106.376 646.463 105.341 647.594 104.616C648.746 103.891 650.079 103.528 651.594 103.528ZM651.562 105.832C650.218 105.832 649.151 106.269 648.362 107.144C647.594 107.997 647.135 109.192 646.986 110.728H655.722C655.722 109.747 655.573 108.893 655.274 108.168C654.975 107.443 654.517 106.877 653.898 106.472C653.301 106.045 652.522 105.832 651.562 105.832ZM665.849 102.6C665.849 103.325 665.827 104.008 665.785 104.648C665.763 105.267 665.731 105.757 665.689 106.12H665.849C666.339 105.395 667.011 104.787 667.865 104.296C668.718 103.805 669.817 103.56 671.161 103.56C673.294 103.56 675.001 104.307 676.281 105.8C677.582 107.272 678.233 109.48 678.233 112.424C678.233 114.387 677.934 116.029 677.337 117.352C676.76 118.675 675.939 119.667 674.873 120.328C673.806 120.989 672.569 121.32 671.161 121.32C669.817 121.32 668.718 121.075 667.865 120.584C667.011 120.093 666.339 119.507 665.849 118.824H665.625L665.049 121H663.033V96.68H665.849V102.6ZM670.681 105.896C669.465 105.896 668.505 106.131 667.801 106.6C667.097 107.048 666.595 107.752 666.297 108.712C665.998 109.651 665.849 110.856 665.849 112.328V112.456C665.849 114.568 666.19 116.189 666.873 117.32C667.577 118.429 668.867 118.984 670.745 118.984C672.281 118.984 673.422 118.419 674.169 117.288C674.937 116.157 675.321 114.525 675.321 112.392C675.321 110.237 674.937 108.616 674.169 107.528C673.422 106.44 672.259 105.896 670.681 105.896ZM693.888 116.264C693.888 117.373 693.611 118.301 693.056 119.048C692.501 119.795 691.712 120.36 690.688 120.744C689.664 121.128 688.448 121.32 687.04 121.32C685.845 121.32 684.811 121.224 683.936 121.032C683.083 120.84 682.325 120.573 681.664 120.232V117.672C682.347 118.013 683.168 118.333 684.128 118.632C685.109 118.909 686.101 119.048 687.104 119.048C688.533 119.048 689.568 118.824 690.208 118.376C690.848 117.907 691.168 117.288 691.168 116.52C691.168 116.093 691.051 115.709 690.816 115.368C690.581 115.027 690.155 114.685 689.536 114.344C688.939 114.003 688.075 113.619 686.944 113.192C685.835 112.765 684.885 112.339 684.096 111.912C683.307 111.485 682.699 110.973 682.272 110.376C681.845 109.779 681.632 109.011 681.632 108.072C681.632 106.621 682.219 105.501 683.392 104.712C684.587 103.923 686.144 103.528 688.064 103.528C689.109 103.528 690.08 103.635 690.976 103.848C691.893 104.04 692.747 104.317 693.536 104.68L692.576 106.92C692.107 106.707 691.605 106.525 691.072 106.376C690.56 106.205 690.037 106.077 689.504 105.992C688.971 105.885 688.427 105.832 687.872 105.832C686.72 105.832 685.835 106.024 685.216 106.408C684.619 106.771 684.32 107.272 684.32 107.912C684.32 108.381 684.459 108.787 684.736 109.128C685.013 109.448 685.472 109.768 686.112 110.088C686.773 110.387 687.648 110.749 688.736 111.176C689.824 111.581 690.752 111.997 691.52 112.424C692.288 112.851 692.875 113.373 693.28 113.992C693.685 114.589 693.888 115.347 693.888 116.264ZM700.849 103.848V121H698.033V103.848H700.849ZM699.473 97.416C699.899 97.416 700.273 97.5653 700.593 97.864C700.934 98.1413 701.105 98.5893 701.105 99.208C701.105 99.8053 700.934 100.253 700.593 100.552C700.273 100.851 699.899 101 699.473 101C699.003 101 698.609 100.851 698.289 100.552C697.969 100.253 697.809 99.8053 697.809 99.208C697.809 98.5893 697.969 98.1413 698.289 97.864C698.609 97.5653 699.003 97.416 699.473 97.416ZM712.01 119.016C712.437 119.016 712.875 118.984 713.323 118.92C713.771 118.835 714.133 118.749 714.411 118.664V120.808C714.112 120.957 713.685 121.075 713.131 121.16C712.576 121.267 712.043 121.32 711.531 121.32C710.635 121.32 709.803 121.171 709.035 120.872C708.288 120.552 707.68 120.008 707.211 119.24C706.741 118.472 706.507 117.395 706.507 116.008V106.024H704.075V104.68L706.539 103.56L707.659 99.912H709.323V103.848H714.283V106.024H709.323V115.944C709.323 116.989 709.568 117.768 710.059 118.28C710.571 118.771 711.221 119.016 712.01 119.016ZM724.469 103.528C725.941 103.528 727.2 103.848 728.245 104.488C729.312 105.128 730.122 106.035 730.677 107.208C731.253 108.36 731.541 109.715 731.541 111.272V112.968H719.797C719.84 114.909 720.33 116.392 721.269 117.416C722.229 118.419 723.562 118.92 725.269 118.92C726.357 118.92 727.317 118.824 728.149 118.632C729.002 118.419 729.877 118.12 730.773 117.736V120.2C729.898 120.584 729.034 120.861 728.181 121.032C727.328 121.224 726.314 121.32 725.141 121.32C723.52 121.32 722.08 120.989 720.821 120.328C719.584 119.667 718.613 118.685 717.909 117.384C717.226 116.061 716.885 114.451 716.885 112.552C716.885 110.675 717.194 109.064 717.813 107.72C718.453 106.376 719.338 105.341 720.469 104.616C721.621 103.891 722.954 103.528 724.469 103.528ZM724.437 105.832C723.093 105.832 722.026 106.269 721.237 107.144C720.469 107.997 720.01 109.192 719.861 110.728H728.597C728.597 109.747 728.448 108.893 728.149 108.168C727.85 107.443 727.392 106.877 726.773 106.472C726.176 106.045 725.397 105.832 724.437 105.832ZM301.792 159.304C301.664 158.856 301.536 158.419 301.408 157.992C301.28 157.544 301.163 157.128 301.056 156.744C300.971 156.339 300.885 155.965 300.8 155.624C300.715 155.283 300.651 154.995 300.608 154.76H300.48C300.437 154.995 300.373 155.283 300.288 155.624C300.224 155.965 300.139 156.339 300.032 156.744C299.947 157.149 299.84 157.576 299.712 158.024C299.605 158.451 299.477 158.888 299.328 159.336L296.256 168.968H293.056L288.352 151.816H291.264L293.632 160.968C293.803 161.587 293.963 162.216 294.112 162.856C294.261 163.475 294.389 164.072 294.496 164.648C294.624 165.203 294.709 165.683 294.752 166.088H294.88C294.944 165.832 295.019 165.512 295.104 165.128C295.189 164.744 295.275 164.339 295.36 163.912C295.467 163.485 295.573 163.059 295.68 162.632C295.808 162.205 295.925 161.821 296.032 161.48L299.072 151.816H302.144L305.088 161.48C305.237 161.971 305.387 162.493 305.536 163.048C305.707 163.603 305.856 164.147 305.984 164.68C306.112 165.192 306.197 165.651 306.24 166.056H306.368C306.411 165.693 306.485 165.245 306.592 164.712C306.72 164.157 306.859 163.56 307.008 162.92C307.179 162.259 307.349 161.608 307.52 160.968L309.92 151.816H312.8L308.032 168.968H304.736L301.792 159.304ZM318.692 151.848V169H315.876V151.848H318.692ZM317.316 145.416C317.743 145.416 318.116 145.565 318.436 145.864C318.778 146.141 318.948 146.589 318.948 147.208C318.948 147.805 318.778 148.253 318.436 148.552C318.116 148.851 317.743 149 317.316 149C316.847 149 316.452 148.851 316.132 148.552C315.812 148.253 315.652 147.805 315.652 147.208C315.652 146.589 315.812 146.141 316.132 145.864C316.452 145.565 316.847 145.416 317.316 145.416ZM329.854 167.016C330.281 167.016 330.718 166.984 331.166 166.92C331.614 166.835 331.977 166.749 332.254 166.664V168.808C331.956 168.957 331.529 169.075 330.974 169.16C330.42 169.267 329.886 169.32 329.374 169.32C328.478 169.32 327.646 169.171 326.878 168.872C326.132 168.552 325.524 168.008 325.054 167.24C324.585 166.472 324.35 165.395 324.35 164.008V154.024H321.918V152.68L324.382 151.56L325.502 147.912H327.166V151.848H332.126V154.024H327.166V163.944C327.166 164.989 327.412 165.768 327.902 166.28C328.414 166.771 329.065 167.016 329.854 167.016ZM338.505 151.816C338.505 152.221 338.483 152.637 338.441 153.064C338.419 153.491 338.387 153.875 338.345 154.216H338.537C338.899 153.619 339.358 153.128 339.913 152.744C340.467 152.36 341.086 152.072 341.769 151.88C342.451 151.667 343.155 151.56 343.881 151.56C345.267 151.56 346.419 151.784 347.337 152.232C348.275 152.659 348.979 153.331 349.449 154.248C349.918 155.165 350.153 156.36 350.153 157.832V169H347.369V158.024C347.369 156.637 347.059 155.603 346.441 154.92C345.822 154.237 344.851 153.896 343.529 153.896C342.249 153.896 341.246 154.141 340.521 154.632C339.795 155.101 339.273 155.805 338.953 156.744C338.654 157.661 338.505 158.792 338.505 160.136V169H335.689V144.68H338.505V151.816ZM372.68 169H369.8V148.68H362.664V146.152H379.784V148.68H372.68V169ZM395.587 151.848V169H393.283L392.867 166.728H392.739C392.377 167.325 391.907 167.816 391.331 168.2C390.755 168.584 390.126 168.861 389.443 169.032C388.761 169.224 388.046 169.32 387.299 169.32C385.934 169.32 384.782 169.107 383.843 168.68C382.926 168.232 382.233 167.549 381.763 166.632C381.294 165.715 381.059 164.531 381.059 163.08V151.848H383.907V162.888C383.907 164.253 384.217 165.277 384.835 165.96C385.454 166.643 386.414 166.984 387.715 166.984C388.995 166.984 389.998 166.749 390.723 166.28C391.47 165.789 391.993 165.085 392.291 164.168C392.611 163.229 392.771 162.099 392.771 160.776V151.848H395.587ZM409.033 151.528C409.353 151.528 409.694 151.549 410.057 151.592C410.441 151.613 410.771 151.656 411.049 151.72L410.697 154.312C410.419 154.248 410.11 154.195 409.769 154.152C409.449 154.109 409.139 154.088 408.841 154.088C408.179 154.088 407.55 154.227 406.953 154.504C406.355 154.781 405.822 155.176 405.353 155.688C404.883 156.179 404.51 156.776 404.233 157.48C403.977 158.184 403.849 158.973 403.849 159.848V169H401.033V151.848H403.337L403.657 154.984H403.785C404.147 154.344 404.585 153.768 405.097 153.256C405.609 152.723 406.195 152.307 406.857 152.008C407.518 151.688 408.243 151.528 409.033 151.528ZM417.067 151.848V169H414.251V151.848H417.067ZM415.691 145.416C416.118 145.416 416.491 145.565 416.811 145.864C417.153 146.141 417.323 146.589 417.323 147.208C417.323 147.805 417.153 148.253 416.811 148.552C416.491 148.851 416.118 149 415.691 149C415.222 149 414.827 148.851 414.507 148.552C414.187 148.253 414.027 147.805 414.027 147.208C414.027 146.589 414.187 146.141 414.507 145.864C414.827 145.565 415.222 145.416 415.691 145.416ZM430.757 151.528C432.805 151.528 434.352 152.029 435.397 153.032C436.443 154.013 436.965 155.613 436.965 157.832V169H434.181V158.024C434.181 156.637 433.872 155.603 433.253 154.92C432.635 154.237 431.664 153.896 430.341 153.896C428.443 153.896 427.131 154.429 426.405 155.496C425.68 156.563 425.317 158.099 425.317 160.104V169H422.501V151.848H424.773L425.189 154.184H425.349C425.733 153.587 426.203 153.096 426.757 152.712C427.333 152.307 427.963 152.008 428.645 151.816C429.328 151.624 430.032 151.528 430.757 151.528ZM448.363 151.528C449.493 151.528 450.507 151.741 451.403 152.168C452.32 152.595 453.099 153.245 453.739 154.12H453.899L454.283 151.848H456.523V169.288C456.523 170.909 456.245 172.264 455.691 173.352C455.136 174.461 454.293 175.293 453.163 175.848C452.032 176.403 450.592 176.68 448.843 176.68C447.605 176.68 446.464 176.584 445.419 176.392C444.395 176.221 443.477 175.955 442.667 175.592V173C443.221 173.277 443.829 173.512 444.491 173.704C445.152 173.917 445.867 174.077 446.635 174.184C447.403 174.291 448.192 174.344 449.003 174.344C450.475 174.344 451.627 173.907 452.459 173.032C453.312 172.179 453.739 171.005 453.739 169.512V168.84C453.739 168.584 453.749 168.221 453.771 167.752C453.792 167.261 453.813 166.92 453.835 166.728H453.707C453.109 167.603 452.363 168.253 451.467 168.68C450.592 169.107 449.568 169.32 448.395 169.32C446.176 169.32 444.437 168.541 443.179 166.984C441.941 165.427 441.323 163.251 441.323 160.456C441.323 158.621 441.6 157.043 442.155 155.72C442.731 154.376 443.541 153.341 444.587 152.616C445.632 151.891 446.891 151.528 448.363 151.528ZM448.747 153.896C447.787 153.896 446.965 154.152 446.283 154.664C445.621 155.176 445.109 155.923 444.747 156.904C444.405 157.885 444.235 159.08 444.235 160.488C444.235 162.6 444.619 164.221 445.387 165.352C446.176 166.461 447.317 167.016 448.811 167.016C449.685 167.016 450.432 166.909 451.051 166.696C451.669 166.461 452.181 166.109 452.587 165.64C452.992 165.149 453.291 164.531 453.483 163.784C453.675 163.037 453.771 162.152 453.771 161.128V160.456C453.771 158.899 453.589 157.64 453.227 156.68C452.885 155.72 452.341 155.016 451.595 154.568C450.848 154.12 449.899 153.896 448.747 153.896ZM484.908 162.888C484.908 164.253 484.577 165.416 483.916 166.376C483.254 167.315 482.305 168.04 481.068 168.552C479.852 169.064 478.412 169.32 476.748 169.32C475.894 169.32 475.073 169.277 474.284 169.192C473.516 169.107 472.812 168.989 472.172 168.84C471.532 168.669 470.966 168.467 470.476 168.232V165.48C471.244 165.821 472.193 166.131 473.324 166.408C474.476 166.685 475.66 166.824 476.876 166.824C478.006 166.824 478.956 166.675 479.724 166.376C480.492 166.077 481.068 165.651 481.452 165.096C481.836 164.541 482.028 163.891 482.028 163.144C482.028 162.397 481.868 161.768 481.548 161.256C481.228 160.744 480.673 160.275 479.884 159.848C479.116 159.4 478.038 158.931 476.652 158.44C475.67 158.077 474.806 157.693 474.06 157.288C473.334 156.861 472.726 156.381 472.236 155.848C471.745 155.315 471.372 154.707 471.116 154.024C470.881 153.341 470.764 152.552 470.764 151.656C470.764 150.44 471.073 149.405 471.692 148.552C472.31 147.677 473.164 147.005 474.252 146.536C475.361 146.067 476.63 145.832 478.06 145.832C479.318 145.832 480.47 145.949 481.516 146.184C482.561 146.419 483.51 146.728 484.364 147.112L483.468 149.576C482.678 149.235 481.814 148.947 480.876 148.712C479.958 148.477 478.998 148.36 477.996 148.36C477.036 148.36 476.236 148.499 475.596 148.776C474.956 149.053 474.476 149.448 474.156 149.96C473.836 150.451 473.676 151.027 473.676 151.688C473.676 152.456 473.836 153.096 474.156 153.608C474.476 154.12 474.998 154.579 475.724 154.984C476.449 155.389 477.43 155.827 478.668 156.296C480.012 156.787 481.142 157.32 482.06 157.896C482.998 158.451 483.702 159.123 484.172 159.912C484.662 160.701 484.908 161.693 484.908 162.888ZM495.75 151.528C497.222 151.528 498.481 151.848 499.526 152.488C500.593 153.128 501.404 154.035 501.958 155.208C502.534 156.36 502.822 157.715 502.822 159.272V160.968H491.078C491.121 162.909 491.612 164.392 492.55 165.416C493.51 166.419 494.844 166.92 496.55 166.92C497.638 166.92 498.598 166.824 499.43 166.632C500.284 166.419 501.158 166.12 502.054 165.736V168.2C501.18 168.584 500.316 168.861 499.462 169.032C498.609 169.224 497.596 169.32 496.422 169.32C494.801 169.32 493.361 168.989 492.102 168.328C490.865 167.667 489.894 166.685 489.19 165.384C488.508 164.061 488.166 162.451 488.166 160.552C488.166 158.675 488.476 157.064 489.094 155.72C489.734 154.376 490.62 153.341 491.75 152.616C492.902 151.891 494.236 151.528 495.75 151.528ZM495.718 153.832C494.374 153.832 493.308 154.269 492.518 155.144C491.75 155.997 491.292 157.192 491.142 158.728H499.878C499.878 157.747 499.729 156.893 499.43 156.168C499.132 155.443 498.673 154.877 498.054 154.472C497.457 154.045 496.678 153.832 495.718 153.832ZM522.101 160.392C522.101 161.821 521.909 163.091 521.525 164.2C521.162 165.288 520.629 166.216 519.925 166.984C519.242 167.752 518.399 168.339 517.397 168.744C516.415 169.128 515.317 169.32 514.101 169.32C512.97 169.32 511.925 169.128 510.965 168.744C510.005 168.339 509.173 167.752 508.469 166.984C507.765 166.216 507.21 165.288 506.805 164.2C506.421 163.091 506.229 161.821 506.229 160.392C506.229 158.493 506.549 156.893 507.189 155.592C507.829 154.269 508.746 153.267 509.941 152.584C511.135 151.88 512.554 151.528 514.197 151.528C515.754 151.528 517.119 151.88 518.293 152.584C519.487 153.267 520.415 154.269 521.077 155.592C521.759 156.893 522.101 158.493 522.101 160.392ZM509.141 160.392C509.141 161.736 509.311 162.909 509.653 163.912C510.015 164.893 510.57 165.651 511.317 166.184C512.063 166.717 513.013 166.984 514.165 166.984C515.317 166.984 516.266 166.717 517.013 166.184C517.759 165.651 518.303 164.893 518.645 163.912C519.007 162.909 519.189 161.736 519.189 160.392C519.189 159.027 519.007 157.864 518.645 156.904C518.282 155.944 517.727 155.208 516.981 154.696C516.255 154.163 515.306 153.896 514.133 153.896C512.383 153.896 511.114 154.472 510.325 155.624C509.535 156.776 509.141 158.365 509.141 160.392Z" fill="white"/>
<defs>
<filter id="filter0_f_0_288" x="198.789" y="-93.7645" width="668.064" height="439.959" filterUnits="userSpaceOnUse" color-interpolation-filters="sRGB">
<feFlood flood-opacity="0" result="BackgroundImageFix"/>
<feBlend mode="normal" in="SourceGraphic" in2="BackgroundImageFix" result="shape"/>
<feGaussianBlur stdDeviation="20" result="effect1_foregroundBlur_0_288"/>
</filter>
<linearGradient id="paint0_linear_0_288" x1="1003.5" y1="-37" x2="1003.5" y2="58" gradientUnits="userSpaceOnUse">
<stop stop-color="#5680E9"/>
<stop offset="1" stop-color="#84CEEB"/>
</linearGradient>
<linearGradient id="paint1_linear_0_288" x1="91.6342" y1="88.7916" x2="210.332" y2="157.61" gradientUnits="userSpaceOnUse">
<stop stop-color="white" stop-opacity="0.5"/>
<stop offset="1" stop-color="white"/>
</linearGradient>
<linearGradient id="paint2_linear_0_288" x1="188.003" y1="200.958" x2="198.398" y2="153.377" gradientUnits="userSpaceOnUse">
<stop stop-color="white"/>
<stop offset="1" stop-color="white" stop-opacity="0.6"/>
</linearGradient>
<linearGradient id="paint3_linear_0_288" x1="113.044" y1="170.525" x2="220.524" y2="98.6044" gradientUnits="userSpaceOnUse">
<stop stop-color="white"/>
<stop offset="1" stop-color="white" stop-opacity="0.5"/>
</linearGradient>
<linearGradient id="paint4_linear_0_288" x1="37.2581" y1="-44.3251" x2="37.2581" y2="84.6749" gradientUnits="userSpaceOnUse">
<stop stop-color="#649DFF" stop-opacity="0"/>
<stop offset="1" stop-color="#649DFF" stop-opacity="0.8"/>
</linearGradient>
<linearGradient id="paint5_linear_0_288" x1="532.821" y1="-29.1993" x2="532.821" y2="281.629" gradientUnits="userSpaceOnUse">
<stop stop-color="#649DFF" stop-opacity="0"/>
<stop offset="1" stop-color="#649DFF" stop-opacity="0.8"/>
</linearGradient>
<linearGradient id="paint6_linear_0_288" x1="90.5281" y1="141.528" x2="90.5281" y2="173.528" gradientUnits="userSpaceOnUse">
<stop stop-color="#5680E9"/>
<stop offset="1" stop-color="#84CEEB"/>
</linearGradient>
<linearGradient id="paint7_linear_0_288" x1="758.313" y1="29.3125" x2="758.313" y2="61.3125" gradientUnits="userSpaceOnUse">
<stop stop-color="#5680E9"/>
<stop offset="1" stop-color="#84CEEB"/>
</linearGradient>
</defs>
</svg>
