<svg width="152" height="24" viewBox="0 0 152 24" fill="none" xmlns="http://www.w3.org/2000/svg">
<path d="M12.8951 2.05544C12.7258 1.71437 12.3775 1.49903 11.9968 1.5C11.616 1.50098 11.2688 1.71811 11.1013 2.06004L8.27701 7.82489L1.85652 8.7559C1.48003 8.81049 1.16713 9.07399 1.04925 9.43569C0.931367 9.7974 1.02893 10.1947 1.30096 10.4606L5.95324 15.0089L4.84234 21.3268C4.77611 21.7035 4.9305 22.0849 5.24008 22.3095C5.54965 22.534 5.96019 22.5623 6.29766 22.3824L11.9994 19.3428L17.7024 22.3825C18.0397 22.5622 18.4499 22.534 18.7594 22.3098C19.0689 22.0856 19.2236 21.7046 19.1578 21.3281L18.0549 15.0089L22.6997 10.46C22.9713 10.194 23.0686 9.79707 22.9508 9.43565C22.833 9.07424 22.5205 8.81086 22.1443 8.75601L15.7585 7.82487L12.8951 2.05544Z" fill="#FFD200"/>
<path d="M44.8951 2.05544C44.7258 1.71437 44.3775 1.49903 43.9968 1.5C43.616 1.50098 43.2688 1.71811 43.1013 2.06004L40.277 7.82489L33.8565 8.7559C33.48 8.81049 33.1671 9.07399 33.0492 9.43569C32.9314 9.7974 33.0289 10.1947 33.301 10.4606L37.9532 15.0089L36.8423 21.3268C36.7761 21.7035 36.9305 22.0849 37.2401 22.3095C37.5497 22.534 37.9602 22.5623 38.2977 22.3824L43.9994 19.3428L49.7024 22.3825C50.0397 22.5622 50.4499 22.534 50.7594 22.3098C51.0689 22.0856 51.2236 21.7046 51.1578 21.3281L50.0549 15.0089L54.6997 10.46C54.9713 10.194 55.0686 9.79707 54.9508 9.43565C54.833 9.07424 54.5205 8.81086 54.1443 8.75601L47.7585 7.82487L44.8951 2.05544Z" fill="#FFD200"/>
<path d="M76.8951 2.05544C76.7258 1.71437 76.3775 1.49903 75.9968 1.5C75.616 1.50098 75.2688 1.71811 75.1013 2.06004L72.277 7.82489L65.8565 8.7559C65.48 8.81049 65.1671 9.07399 65.0492 9.43569C64.9314 9.7974 65.0289 10.1947 65.301 10.4606L69.9532 15.0089L68.8423 21.3268C68.7761 21.7035 68.9305 22.0849 69.2401 22.3095C69.5497 22.534 69.9602 22.5623 70.2977 22.3824L75.9994 19.3428L81.7024 22.3825C82.0397 22.5622 82.4499 22.534 82.7594 22.3098C83.0689 22.0856 83.2236 21.7046 83.1578 21.3281L82.0549 15.0089L86.6997 10.46C86.9713 10.194 87.0686 9.79707 86.9508 9.43565C86.833 9.07424 86.5205 8.81086 86.1443 8.75601L79.7585 7.82487L76.8951 2.05544Z" fill="#FFD200"/>
<path d="M108.895 2.05544C108.726 1.71437 108.378 1.49903 107.997 1.5C107.616 1.50098 107.269 1.71811 107.101 2.06004L104.277 7.82489L97.8565 8.7559C97.48 8.81049 97.1671 9.07399 97.0492 9.43569C96.9314 9.7974 97.0289 10.1947 97.301 10.4606L101.953 15.0089L100.842 21.3268C100.776 21.7035 100.931 22.0849 101.24 22.3095C101.55 22.534 101.96 22.5623 102.298 22.3824L107.999 19.3428L113.702 22.3825C114.04 22.5622 114.45 22.534 114.759 22.3098C115.069 22.0856 115.224 21.7046 115.158 21.3281L114.055 15.0089L118.7 10.46C118.971 10.194 119.069 9.79707 118.951 9.43565C118.833 9.07424 118.52 8.81086 118.144 8.75601L111.758 7.82487L108.895 2.05544Z" fill="#FFD200"/>
<path d="M140.895 2.05544C140.726 1.71437 140.378 1.49903 139.997 1.5C139.616 1.50098 139.269 1.71811 139.101 2.06004L136.277 7.82489L129.857 8.7559C129.48 8.81049 129.167 9.07399 129.049 9.43569C128.931 9.7974 129.029 10.1947 129.301 10.4606L133.953 15.0089L132.842 21.3268C132.776 21.7035 132.931 22.0849 133.24 22.3095C133.55 22.534 133.96 22.5623 134.298 22.3824L139.999 19.3428L145.702 22.3825C146.04 22.5622 146.45 22.534 146.759 22.3098C147.069 22.0856 147.224 21.7046 147.158 21.3281L146.055 15.0089L150.7 10.46C150.971 10.194 151.069 9.79707 150.951 9.43565C150.833 9.07424 150.52 8.81086 150.144 8.75601L143.758 7.82487L140.895 2.05544Z" fill="#FFD200"/>
</svg>
