<svg width="32" height="32" viewBox="0 0 32 32" fill="none" xmlns="http://www.w3.org/2000/svg">
<rect width="32" height="32" rx="16" fill="#5680E9"/>
<path d="M23.8417 12.5417C23.8417 12.7167 23.8417 12.8917 23.8417 13.0417C23.8417 18.2167 19.8917 24.1917 12.6917 24.1917C10.4667 24.1917 8.41666 23.5417 6.66666 22.4417C6.96666 22.4667 7.29166 22.4917 7.59166 22.4917C9.41666 22.4917 11.1167 21.8667 12.4667 20.8167C10.7417 20.7917 9.29166 19.6417 8.81666 18.0917C9.06666 18.1417 9.29166 18.1667 9.56666 18.1667C9.91666 18.1667 10.2667 18.1167 10.5917 18.0167C8.79166 17.6667 7.44166 16.0917 7.44166 14.1917C7.44166 14.1667 7.44166 14.1667 7.44166 14.1417C7.96666 14.4417 8.56666 14.6167 9.21666 14.6417C8.16666 13.9417 7.46666 12.7417 7.46666 11.3667C7.46666 10.6417 7.66666 9.96675 7.99166 9.39175C9.91666 11.7667 12.8167 13.3167 16.0667 13.4917C15.9917 13.2167 15.9667 12.8917 15.9667 12.5917C15.9667 10.4167 17.7167 8.66675 19.8917 8.66675C21.0167 8.66675 22.0417 9.14175 22.7417 9.89175C23.6417 9.71675 24.4667 9.39175 25.2417 8.94175C24.9417 9.86675 24.3167 10.6167 23.5167 11.1167C24.3167 11.0167 25.0667 10.8167 25.7667 10.4917C25.2667 11.2917 24.6167 11.9917 23.8417 12.5417Z" fill="white"/>
</svg>
