<svg width="32" height="32" viewBox="0 0 32 32" fill="none" xmlns="http://www.w3.org/2000/svg">
<rect width="32" height="32" rx="16" fill="#5680E9"/>
<path fill-rule="evenodd" clip-rule="evenodd" d="M23.8253 9.42663C24.682 9.65727 25.3574 10.3327 25.5881 11.1894C26.0164 12.7545 25.9999 16.0164 25.9999 16.0164C25.9999 16.0164 25.9999 19.2618 25.5881 20.8269C25.3574 21.6836 24.682 22.359 23.8253 22.5897C22.2602 23.0015 16 23.0015 16 23.0015C16 23.0015 9.75616 23.0015 8.17462 22.5732C7.31795 22.3426 6.6425 21.6671 6.41186 20.8104C6 19.2618 6 15.9999 6 15.9999C6 15.9999 6 12.7545 6.41186 11.1894C6.6425 10.3327 7.33443 9.64079 8.17462 9.41015C9.73969 8.99829 16 8.99829 16 8.99829C16 8.99829 22.2602 8.99829 23.8253 9.42663ZM19.2125 15.9999L14.0066 18.9982V13.0016L19.2125 15.9999Z" fill="white"/>
</svg>
